<svg width="334" height="118" viewBox="0 0 334 118" fill="none" xmlns="http://www.w3.org/2000/svg">
<g clip-path="url(#clip0_202_228)">
<rect width="334" height="118" rx="30" fill="#42C83C"/>
<path d="M310.597 -6.2708C303.833 0.47629 295.541 9.6315 292.921 19.9721C291.613 25.1332 291.72 30.5861 294.137 36.1866C296.555 41.7897 301.295 47.563 309.291 53.3472C329.638 68.0636 348.404 67.5046 362.231 68.1651C369.122 68.4944 374.867 69.1275 378.901 72.2065C382.955 75.3009 385.206 80.7989 385.32 90.6556L385.025 90.648L384.73 90.6412C384.617 80.8338 382.374 75.5582 378.539 72.6306C374.683 69.6879 369.142 69.0489 362.222 68.7183C348.425 68.0591 329.463 68.6238 308.943 53.781C300.883 47.9514 296.062 42.1006 293.592 36.3792C291.122 30.655 291.015 25.0813 292.347 19.8255C295.005 9.33224 303.401 0.0866388 310.161 -6.65765L310.597 -6.2708ZM334.951 -61.2766C328.188 -54.5295 319.895 -45.3742 317.275 -35.0338C316.582 -32.2984 316.286 -29.481 316.521 -26.6032C319.41 -36.7359 327.527 -45.6564 334.099 -52.213L334.536 -51.8266C327.772 -45.0795 319.479 -35.9244 316.86 -25.5837C316.808 -25.3804 316.759 -25.1766 316.712 -24.9724C316.846 -24.0839 317.034 -23.1903 317.277 -22.2918C320.959 -30.4751 327.585 -37.671 333.118 -43.1908L333.555 -42.8044C327.868 -37.1315 321.101 -29.7558 317.533 -21.4051C317.777 -20.6206 318.065 -19.833 318.398 -19.0421C322.131 -25.0791 327.126 -30.4216 331.453 -34.7381L331.888 -34.3513C327.47 -29.9436 322.399 -24.5081 318.684 -18.386C318.955 -17.7871 319.252 -17.1864 319.578 -16.5839C322.598 -20.493 325.951 -24.0141 328.977 -27.0333L329.414 -26.6469C326.328 -23.5691 322.926 -19.9896 319.888 -16.0258C320.087 -15.6742 320.297 -15.3219 320.516 -14.9691C322.234 -16.8704 323.961 -18.644 325.592 -20.2716L326.028 -19.8847C324.356 -18.2166 322.589 -16.402 320.839 -14.458C320.875 -14.4017 320.913 -14.3457 320.949 -14.2894C321.056 -14.3964 321.162 -14.5039 321.268 -14.6096L321.703 -14.2228C321.562 -14.0821 321.422 -13.9392 321.28 -13.7965C324.007 -9.79317 328.02 -5.72814 333.646 -1.65864C353.992 13.0577 372.758 12.4988 386.585 13.1593C393.477 13.4886 399.221 14.1217 403.255 17.2007C407.309 20.2951 409.56 25.793 409.674 35.6498L409.379 35.6422L409.085 35.6349C408.972 25.8277 406.729 20.5523 402.894 17.6248C399.038 14.6821 393.496 14.0431 386.576 13.7125C372.78 13.0533 353.818 13.6179 333.297 -1.22485C327.684 -5.28498 323.642 -9.35589 320.871 -13.3857C319.852 -12.3569 318.804 -11.2773 317.754 -10.149C317.857 -9.88942 317.964 -9.62942 318.076 -9.36923C320.494 -3.76604 325.233 2.00722 333.23 7.79137C353.576 22.5079 372.343 21.9488 386.169 22.6093C393.061 22.9386 398.806 23.5718 402.84 26.6507C406.893 29.7452 409.144 35.2434 409.258 45.1003L408.963 45.0922L408.669 45.0854C408.556 35.2781 406.313 30.0024 402.478 27.0748C398.622 24.1322 393.08 23.4931 386.161 23.1625C372.364 22.5033 353.402 23.068 332.881 8.22517C324.822 2.39563 320 -3.45477 317.53 -9.17613C317.458 -9.34343 317.388 -9.5109 317.319 -9.67794C316.613 -8.91025 315.906 -8.12146 315.206 -7.31222C315.473 -5.02357 316.08 -2.69835 317.095 -0.347002C319.513 5.2561 324.252 11.03 332.248 16.8141C352.594 31.5304 371.361 30.9715 385.187 31.632C392.079 31.9613 397.824 32.5945 401.858 35.6734C405.912 38.7678 408.163 44.2661 408.277 54.1233L407.982 54.1157L407.688 54.1085C407.575 44.3006 405.331 39.025 401.496 36.0975C397.64 33.1548 392.099 32.5158 385.179 32.1852C371.382 31.526 352.42 32.0906 331.899 17.2479C323.84 11.4183 319.018 5.56747 316.549 -0.153905C315.595 -2.36542 314.994 -4.55463 314.692 -6.71151C314.596 -6.59802 314.499 -6.48468 314.403 -6.37043C314.142 -5.98871 313.888 -5.603 313.637 -5.2153C313.023 -0.924957 313.459 3.54166 315.428 8.10608C317.847 13.7092 322.586 19.4826 330.583 25.2667C350.929 39.9831 369.695 39.4241 383.522 40.0846C390.414 40.4139 396.158 41.047 400.192 44.126C404.246 47.2205 406.498 52.7188 406.612 62.576L406.316 62.5675L406.022 62.5603C405.909 52.753 403.666 47.4776 399.83 44.5501C395.975 41.6074 390.433 40.9684 383.513 40.6378C369.716 39.9786 350.755 40.5433 330.234 25.7005C322.174 19.8709 317.353 14.0201 314.884 8.29871C313.063 4.07991 312.527 -0.0571621 312.903 -4.04535C312.443 -2.84987 312.049 -1.63602 311.737 -0.404854C310.429 4.75641 310.537 10.2099 312.954 15.8105C315.372 21.4137 320.111 27.187 328.108 32.9711C348.454 47.6873 367.22 47.129 381.046 47.7895C387.938 48.1188 393.683 48.7519 397.717 51.8309C401.771 54.9253 404.022 60.423 404.136 70.28L403.841 70.2719L403.547 70.2651C403.434 60.4574 401.19 55.1817 397.355 52.2542C393.499 49.3118 387.958 48.6728 381.039 48.3422C367.242 47.683 348.28 48.2476 327.759 33.4049C319.7 27.5752 314.877 21.7242 312.408 16.0028C309.938 10.2786 309.832 4.70512 311.163 -0.550587C311.234 -0.827842 311.308 -1.10445 311.386 -1.37994C310.08 1.1068 309.027 3.69297 308.352 6.35816C307.044 11.5193 307.151 16.9722 309.568 22.5727C311.986 28.1758 316.726 33.9492 324.722 39.7333C345.068 54.4497 363.835 53.8906 377.661 54.5512C384.553 54.8805 390.298 55.5136 394.332 58.5926C398.386 61.6871 400.637 67.1854 400.751 77.0426L400.456 77.0349L400.162 77.0281C400.048 67.2205 397.805 61.9443 393.97 59.0167C390.114 56.074 384.573 55.435 377.653 55.1044C363.856 54.4452 344.894 55.0099 324.373 40.1671C316.314 34.3375 311.493 28.4867 309.023 22.7653C306.553 17.041 306.447 11.467 307.778 6.21113C308.527 3.25769 309.728 0.402374 311.221 -2.32537C308.015 2.06635 305.325 6.89799 304.027 12.0201C302.72 17.1812 302.827 22.6342 305.244 28.2346C307.662 33.8378 312.401 39.6111 320.398 45.3952C340.744 60.1117 359.51 59.5526 373.337 60.2132C380.229 60.5424 385.973 61.1756 390.007 64.2545C394.061 67.3489 396.312 72.8469 396.426 82.7037L396.131 82.696L395.837 82.6892C395.723 72.8818 393.481 67.6062 389.646 64.6786C385.79 61.736 380.248 61.0969 373.329 60.7663C359.532 60.1071 340.57 60.6718 320.049 45.829C311.989 39.9994 307.168 34.1486 304.699 28.4272C302.229 22.703 302.122 17.1293 303.453 11.8735C305.04 5.61123 308.67 -0.206312 312.776 -5.31325C312.919 -5.65014 313.065 -5.9858 313.217 -6.31942C313.219 -6.32669 313.22 -6.33401 313.221 -6.34128C307.27 -0.0449281 301.038 7.82003 298.832 16.5279C297.524 21.6892 297.631 27.1431 300.048 32.7437C302.466 38.3468 307.206 44.1202 315.202 49.9043C335.549 64.6207 354.315 64.0617 368.141 64.7222C375.033 65.0515 380.777 65.684 384.811 68.7628C388.865 71.8572 391.117 77.3556 391.231 87.2127L390.936 87.2051L390.642 87.1979C390.529 77.3901 388.285 72.1144 384.449 69.1869C380.594 66.2443 375.052 65.606 368.133 65.2754C354.336 64.6162 335.374 65.1808 314.853 50.3381C306.794 44.5084 301.972 38.657 299.503 32.9355C297.033 27.2113 296.927 21.6379 298.258 16.3822C300.58 7.21756 307.277 -0.99525 313.44 -7.42114C313.502 -7.70004 313.569 -7.9783 313.639 -8.25546C313.874 -9.18151 314.153 -10.0979 314.472 -11.0036C314.541 -12.94 314.832 -14.8442 315.304 -16.7081C315.365 -16.9481 315.43 -17.1873 315.496 -17.4259C315.317 -20.0102 315.554 -22.5437 316.113 -25.0099C315.599 -28.4968 315.871 -31.9007 316.702 -35.1808C319.361 -45.674 327.755 -54.9192 334.516 -61.6635L334.951 -61.2766ZM304.162 -3.69361C297.398 3.05349 289.106 12.2086 286.486 22.5493C285.178 27.7105 285.285 33.1633 287.702 38.7638C290.12 44.3669 294.86 50.1402 302.856 55.9244C323.202 70.6406 341.968 70.0822 355.795 70.7428C362.686 71.072 368.431 71.7052 372.465 74.7841C376.519 77.8786 378.77 83.3763 378.884 93.2333L378.589 93.2257L378.295 93.2184C378.182 83.4107 375.938 78.1349 372.103 75.2074C368.247 72.2651 362.706 71.6261 355.787 71.2955C341.99 70.6363 323.028 71.2008 302.507 56.3582C294.448 50.5287 289.626 44.6782 287.156 38.9569C284.686 33.2326 284.58 27.6585 285.912 22.4027C288.57 11.9095 296.965 2.66428 303.726 -4.08L304.162 -3.69361ZM297.377 -1.73836C290.613 5.0087 282.32 14.1632 279.7 24.5037C278.393 29.6649 278.5 35.1184 280.917 40.719C283.335 46.3221 288.075 52.0955 296.072 57.8796C316.418 72.596 335.184 72.037 349.011 72.6976C355.902 73.0268 361.647 73.6594 365.68 76.7381C369.735 79.8325 371.986 85.3311 372.1 95.1881L371.805 95.1804L371.51 95.1736C371.397 85.3658 369.154 80.0897 365.319 77.1622C361.463 74.2196 355.922 73.5813 349.002 73.2507C335.205 72.5916 316.243 73.1561 295.723 58.3134C287.663 52.4838 282.841 46.6323 280.372 40.9108C277.902 35.1868 277.795 29.6136 279.127 24.3579C281.785 13.8647 290.181 4.61907 296.942 -2.12522L297.377 -1.73836ZM290.388 -0.171149C283.624 6.57595 275.332 15.7311 272.712 26.0717C271.404 31.2329 271.511 36.6857 273.928 42.2862C276.346 47.8894 281.086 53.6627 289.082 59.4468C309.429 74.1633 328.195 73.6042 342.021 74.2648C348.913 74.594 354.658 75.2272 358.692 78.3061C362.746 81.4006 364.997 86.8995 365.11 96.7566L364.816 96.7485L364.521 96.7409C364.408 86.9336 362.165 81.6578 358.33 78.7303C354.474 75.7876 348.933 75.1485 342.013 74.8179C328.216 74.1588 309.254 74.7235 288.733 59.8806C280.674 54.0511 275.852 48.2007 273.382 42.4793C270.912 36.755 270.806 31.181 272.138 25.9251C274.796 15.432 283.191 6.18673 289.951 -0.557541L290.388 -0.171149ZM283.301 1.20739C276.537 7.95448 268.245 17.1097 265.625 27.4503C264.317 32.6114 264.424 38.0644 266.841 43.6648C269.259 49.268 273.999 55.042 281.996 60.8262C302.342 75.5424 321.108 74.9836 334.935 75.6442C341.827 75.9734 347.571 76.6058 351.605 79.6847C355.659 82.7791 357.91 88.2774 358.024 98.1347L357.729 98.127L357.435 98.1202C357.321 88.3124 355.078 83.0363 351.243 80.1088C347.387 77.1661 341.846 76.5271 334.926 76.1965C321.129 75.5373 302.167 76.1019 281.646 61.2592C273.587 55.4296 268.766 49.5788 266.296 43.8574C263.826 38.1331 263.72 32.5591 265.051 27.3032C267.71 16.8102 276.105 7.56556 282.866 0.821368L283.301 1.20739ZM276.2 2.55377C269.436 9.30082 261.144 18.4561 258.524 28.7966C257.216 33.9577 257.323 39.4107 259.74 45.0111C262.158 50.6143 266.898 56.3884 274.895 62.1726C295.241 76.8887 314.006 76.3304 327.833 76.991C334.724 77.3202 340.469 77.9528 344.503 81.0315C348.557 84.126 350.808 89.6243 350.922 99.4815L350.628 99.4734L350.333 99.4666C350.22 89.6587 347.976 84.3832 344.141 81.4556C340.285 78.5131 334.744 77.8734 327.825 77.5428C314.028 76.8837 295.066 77.4484 274.545 62.6055C266.486 56.7759 261.664 50.9256 259.194 45.2042C256.724 39.4799 256.618 33.9059 257.949 28.6501C260.608 18.157 269.003 8.91241 275.764 2.1682L276.2 2.55377ZM269.141 3.98687C262.377 10.7339 254.085 19.8892 251.465 30.2297C250.157 35.3909 250.264 40.8438 252.681 46.4442C255.099 52.0475 259.838 57.822 267.835 63.6061C288.181 78.3225 306.947 77.7635 320.774 78.4241C327.666 78.7533 333.41 79.3858 337.444 82.4646C341.498 85.5591 343.75 91.0574 343.863 100.915L343.568 100.907L343.275 100.9C343.161 91.0918 340.918 85.8163 337.082 82.8888C333.226 79.9461 327.686 79.3065 320.766 78.9759C306.969 78.3168 288.007 78.882 267.486 64.0391C259.426 58.2096 254.605 52.3587 252.136 46.6373C249.665 40.913 249.559 35.339 250.891 30.0832C253.549 19.5901 261.944 10.3455 268.705 3.60131L269.141 3.98687ZM262.171 5.59326C255.408 12.3403 247.115 21.4955 244.495 31.8361C243.188 36.9973 243.295 42.4502 245.712 48.0506C248.13 53.6538 252.869 59.4271 260.866 65.2112C281.212 79.9277 299.978 79.3686 313.805 80.0292C320.697 80.3585 326.441 80.9916 330.475 84.0706C334.529 87.165 336.78 92.6639 336.894 102.521L336.6 102.513L336.305 102.506C336.192 92.6982 333.948 87.4227 330.113 84.4951C326.257 81.5525 320.716 80.9129 313.796 80.5823C300 79.9232 281.038 80.4879 260.517 65.645C252.457 59.8154 247.635 53.9651 245.166 48.2437C242.696 42.5194 242.59 36.9454 243.921 31.6896C246.58 21.1964 254.974 11.9511 261.735 5.20687L262.171 5.59326ZM255.325 7.4332C248.562 14.1803 240.269 23.3347 237.649 33.6752C236.341 38.8365 236.448 44.29 238.865 49.8906C241.284 55.4937 246.023 61.2671 254.02 67.0512C274.366 81.7676 293.132 81.2086 306.959 81.8691C313.851 82.1984 319.595 82.8315 323.629 85.9105C327.683 89.005 329.934 94.503 330.048 104.36L329.753 104.352L329.459 104.345C329.345 94.5373 327.102 89.2613 323.267 86.3338C319.411 83.3912 313.87 82.7529 306.95 82.4223C293.153 81.7631 274.192 82.3277 253.671 67.485C245.611 61.6553 240.789 55.8039 238.32 50.0824C235.85 44.3583 235.744 38.7851 237.075 33.5295C239.734 23.0362 248.129 13.7906 254.89 7.04635L255.325 7.4332ZM248.627 9.54569C241.863 16.2927 233.57 25.4472 230.95 35.7877C229.642 40.949 229.75 46.4025 232.167 52.0031C234.585 57.6062 239.324 63.3796 247.321 69.1637C267.667 83.88 286.434 83.321 300.26 83.9816C307.152 84.3109 312.896 84.9434 316.93 88.0222C320.984 91.1166 323.235 96.6154 323.349 106.473L323.054 106.464L322.76 106.458C322.647 96.6498 320.404 91.3738 316.568 88.4463C312.713 85.5037 307.171 84.8654 300.252 84.5348C286.455 83.8756 267.493 84.4401 246.972 69.5975C238.913 63.7678 234.091 57.9163 231.622 52.1949C229.152 46.4708 229.045 40.8976 230.376 35.642C233.035 25.1487 241.43 15.9031 248.191 9.15883L248.627 9.54569ZM314.563 -7.74226C314.493 -7.60714 314.426 -7.47111 314.359 -7.3354C314.432 -7.43984 314.504 -7.54491 314.578 -7.64887C314.575 -7.68179 314.572 -7.71471 314.568 -7.74761C314.567 -7.74573 314.564 -7.74415 314.563 -7.74226ZM314.477 -9.08423C314.428 -8.91489 314.38 -8.74525 314.334 -8.57526C314.385 -8.67139 314.436 -8.76759 314.488 -8.86341C314.484 -8.93706 314.48 -9.01066 314.477 -9.08423ZM316.675 -11.4356C316.292 -10.8285 315.923 -10.2138 315.567 -9.59296C315.737 -9.76335 315.905 -9.93321 316.072 -10.1005L316.271 -9.92374C316.483 -10.1976 316.697 -10.4693 316.912 -10.7392C316.829 -10.9715 316.751 -11.2039 316.675 -11.4356ZM316.098 -13.4761C315.718 -12.6233 315.368 -11.7612 315.059 -10.8883C315.047 -10.5497 315.043 -10.2103 315.046 -9.86985C315.491 -10.6472 315.96 -11.413 316.447 -12.1682C316.318 -12.6054 316.201 -13.0412 316.098 -13.4761ZM320.447 -14.0177C319.854 -13.3519 319.264 -12.672 318.681 -11.9777C319.307 -12.63 319.929 -13.2624 320.539 -13.8769C320.508 -13.9238 320.478 -13.9709 320.447 -14.0177ZM319.511 -15.5309C318.665 -14.4066 317.851 -13.2521 317.082 -12.0702C317.164 -11.8042 317.25 -11.538 317.341 -11.2712C318.252 -12.3922 319.182 -13.4791 320.119 -14.5274C319.908 -14.8623 319.705 -15.1966 319.511 -15.5309ZM318.327 -17.7855C317.668 -16.6643 317.056 -15.5209 316.503 -14.357C316.606 -13.8444 316.728 -13.3302 316.868 -12.8144C317.609 -13.9319 318.389 -15.0245 319.196 -16.0883C318.883 -16.6551 318.593 -17.2209 318.327 -17.7855ZM315.676 -15.7096C315.471 -14.7844 315.314 -13.8501 315.207 -12.9077C315.422 -13.4227 315.651 -13.9333 315.889 -14.4406C315.807 -14.8648 315.735 -15.2878 315.676 -15.7096ZM317.193 -20.5802C316.77 -19.519 316.399 -18.4433 316.091 -17.3534C316.14 -16.6851 316.217 -16.0136 316.325 -15.3389C316.851 -16.3905 317.421 -17.425 318.03 -18.4399C318.002 -18.5023 317.974 -18.5642 317.947 -18.6266C317.665 -19.2797 317.415 -19.9313 317.193 -20.5802ZM316.401 -23.4244C316.159 -22.0131 316.026 -20.5821 316.025 -19.1341C316.292 -19.916 316.588 -20.6902 316.91 -21.456C316.711 -22.1147 316.542 -22.7708 316.401 -23.4244Z" fill="url(#paint0_radial_202_228)" fill-opacity="0.58"/>
<path d="M21.07 25V19.82L24.51 25H25.77V17.69H24.51V22.87L21.08 17.69H19.81V25H21.07ZM29.4181 25.13C30.7081 25.13 31.6081 24.48 31.8181 23.4H30.6881C30.5481 23.87 30.1081 24.13 29.4381 24.13C28.6281 24.13 28.1681 23.69 28.0781 22.82L31.7981 22.81V22.44C31.7981 20.9 30.8581 19.91 29.3781 19.91C27.9281 19.91 26.9181 20.98 26.9181 22.53C26.9181 24.06 27.9481 25.13 29.4181 25.13ZM29.3881 20.91C30.1181 20.91 30.5881 21.36 30.5881 22.04H28.1081C28.2281 21.3 28.6681 20.91 29.3881 20.91ZM33.6497 25H34.8397L35.5197 22.88C35.7697 22.07 35.8597 21.72 35.9097 21.49C35.9497 21.74 36.0597 22.21 36.2597 22.86L36.9397 25H38.0797L39.7897 20.06H38.4997L37.8397 22.18C37.7497 22.49 37.5897 23.08 37.5097 23.45C37.4497 23.12 37.2497 22.38 37.1897 22.18L36.5297 20.06H35.2897L34.6097 22.18C34.4497 22.67 34.3597 22.98 34.2697 23.46C34.1797 23 34.0797 22.57 33.9697 22.18L33.3197 20.06H32.0497L33.6497 25ZM44.0338 25L44.6238 23.31H47.3538L47.9438 25H49.2938L46.6538 17.69H45.3438L42.7038 25H44.0338ZM45.8338 19.87C45.9038 19.67 45.9638 19.45 45.9938 19.31C46.0138 19.46 46.0838 19.68 46.1438 19.87L46.9838 22.23H45.0038L45.8338 19.87ZM51.2604 25V17.56H50.0504V25H51.2604ZM53.6702 25L53.7502 24.23C54.0402 24.8 54.6702 25.13 55.4102 25.13C56.8302 25.13 57.7602 24.08 57.7602 22.56C57.7602 21 56.9002 19.9 55.4902 19.9C54.7402 19.9 54.0802 20.23 53.7602 20.78V17.56H52.5402V25H53.6702ZM53.7702 22.51C53.7702 21.62 54.3202 21 55.1602 21C56.0202 21 56.5302 21.63 56.5302 22.51C56.5302 23.39 56.0202 24.01 55.1602 24.01C54.3202 24.01 53.7702 23.4 53.7702 22.51ZM61.9644 20.06V22.65C61.9644 23.59 61.5944 24.04 60.8244 24.04C60.1444 24.04 59.7744 23.66 59.7744 22.72V20.06H58.5544V23.15C58.5544 24.36 59.2244 25.13 60.3644 25.13C61.0244 25.13 61.6644 24.81 61.9644 24.34L62.0544 25H63.1844V20.06H61.9644ZM65.6645 25V22.2C65.6645 21.4 66.1345 21.02 66.7145 21.02C67.2945 21.02 67.6645 21.39 67.6645 22.08V25H68.8845V22.2C68.8845 21.39 69.3345 21.01 69.9245 21.01C70.5045 21.01 70.8845 21.38 70.8845 22.09V25H72.0945V21.77C72.0945 20.63 71.4345 19.91 70.2345 19.91C69.4845 19.91 68.9045 20.28 68.6545 20.85C68.3945 20.28 67.8745 19.91 67.1245 19.91C66.4145 19.91 65.9145 20.23 65.6645 20.64L65.5645 20.06H64.4445V25H65.6645Z" fill="#FBFBFB"/>
<path d="M20.053 99H23.901C25.864 99 26.995 98.051 26.995 96.426C26.995 95.321 26.488 94.567 25.487 94.242C26.384 93.865 26.852 93.111 26.852 92.058C26.852 90.472 25.708 89.497 23.836 89.497H20.053V99ZM23.693 90.966C24.629 90.966 25.149 91.408 25.149 92.227C25.149 93.072 24.642 93.553 23.732 93.553H21.717V90.966H23.693ZM23.836 94.957C24.759 94.957 25.292 95.412 25.292 96.218C25.292 97.076 24.772 97.531 23.836 97.531H21.717V94.957H23.836ZM29.0798 91.291C29.5998 91.291 30.0288 90.862 30.0288 90.329C30.0288 89.796 29.5998 89.38 29.0798 89.38C28.5338 89.38 28.1048 89.796 28.1048 90.329C28.1048 90.862 28.5338 91.291 29.0798 91.291ZM28.2868 99H29.8728V92.578H28.2868V99ZM33.1104 99V89.328H31.5374V99H33.1104ZM36.3731 99V89.328H34.8001V99H36.3731ZM38.8298 91.291C39.3498 91.291 39.7788 90.862 39.7788 90.329C39.7788 89.796 39.3498 89.38 38.8298 89.38C38.2838 89.38 37.8548 89.796 37.8548 90.329C37.8548 90.862 38.2838 91.291 38.8298 91.291ZM38.0368 99H39.6228V92.578H38.0368V99ZM44.1344 99.169C45.8114 99.169 46.9814 98.324 47.2544 96.92H45.7854C45.6034 97.531 45.0314 97.869 44.1604 97.869C43.1074 97.869 42.5094 97.297 42.3924 96.166L47.2284 96.153V95.672C47.2284 93.67 46.0064 92.383 44.0824 92.383C42.1974 92.383 40.8844 93.774 40.8844 95.789C40.8844 97.778 42.2234 99.169 44.1344 99.169ZM44.0954 93.683C45.0444 93.683 45.6554 94.268 45.6554 95.152H42.4314C42.5874 94.19 43.1594 93.683 44.0954 93.683ZM58.1376 99V97.466H53.8996V94.944H57.6956V93.475H53.8996V91.031H58.1376V89.497H52.2356V99H58.1376ZM60.5007 91.291C61.0207 91.291 61.4497 90.862 61.4497 90.329C61.4497 89.796 61.0207 89.38 60.5007 89.38C59.9547 89.38 59.5257 89.796 59.5257 90.329C59.5257 90.862 59.9547 91.291 60.5007 91.291ZM59.7077 99H61.2937V92.578H59.7077V99ZM64.5313 99V89.328H62.9583V99H64.5313ZM66.988 91.291C67.508 91.291 67.937 90.862 67.937 90.329C67.937 89.796 67.508 89.38 66.988 89.38C66.442 89.38 66.013 89.796 66.013 90.329C66.013 90.862 66.442 91.291 66.988 91.291ZM66.195 99H67.781V92.578H66.195V99ZM68.9256 97.05C68.9256 98.311 69.9396 99.169 71.5386 99.169C73.1246 99.169 74.2296 98.363 74.2296 97.063C74.2296 96.075 73.6836 95.581 72.6046 95.334L71.4476 95.061C70.9016 94.931 70.6156 94.697 70.6156 94.333C70.6156 93.852 70.9796 93.566 71.6036 93.566C72.2146 93.566 72.5786 93.917 72.5916 94.463H74.0996C74.0866 93.215 73.1116 92.383 71.6686 92.383C70.1866 92.383 69.1206 93.137 69.1206 94.398C69.1206 95.425 69.6796 95.971 70.8366 96.231L71.9936 96.504C72.5656 96.634 72.7346 96.868 72.7346 97.193C72.7346 97.661 72.3316 97.96 71.5906 97.96C70.8626 97.96 70.4466 97.609 70.4336 97.05H68.9256ZM77.0232 99V95.49C77.0232 94.528 77.6082 93.826 78.6092 93.826C79.4152 93.826 79.9482 94.346 79.9482 95.425V99H81.5342V95.048C81.5342 93.384 80.7022 92.383 79.1162 92.383C78.1932 92.383 77.4392 92.786 77.0362 93.41V89.328H75.4372V99H77.0232Z" fill="#FBFBFB"/>
<path d="M22.971 50V44.11H29.127V50H31.559V36.111H29.127V41.849H22.971V36.111H20.539V50H22.971ZM37.0916 50.247C38.5546 50.247 39.8276 49.582 40.2266 48.613L40.3976 50H42.4306V44.3C42.4306 41.697 40.8726 40.329 38.3456 40.329C35.7996 40.329 34.1276 41.659 34.1276 43.692H36.1036C36.1036 42.704 36.8636 42.134 38.2316 42.134C39.4096 42.134 40.1696 42.647 40.1696 43.92V44.129L37.3576 44.338C35.1346 44.509 33.8806 45.592 33.8806 47.321C33.8806 49.088 35.0966 50.247 37.0916 50.247ZM37.8516 48.499C36.8066 48.499 36.2366 48.081 36.2366 47.226C36.2366 46.466 36.7876 45.991 38.2316 45.858L40.1886 45.706V46.2C40.1886 47.644 39.2766 48.499 37.8516 48.499ZM44.7077 54.351H47.0257V48.746C47.6147 49.696 48.8307 50.247 50.2367 50.247C53.0297 50.247 54.6257 48.119 54.6257 45.193C54.6257 42.248 52.8777 40.329 50.2367 40.329C48.8117 40.329 47.5767 40.956 47.0067 42.039L46.8547 40.614H44.7077V54.351ZM47.0447 45.307C47.0447 43.616 48.0897 42.438 49.6857 42.438C51.3197 42.438 52.2887 43.635 52.2887 45.307C52.2887 46.979 51.3197 48.157 49.6857 48.157C48.0897 48.157 47.0447 46.998 47.0447 45.307ZM56.4714 54.351H58.7894V48.746C59.3784 49.696 60.5944 50.247 62.0004 50.247C64.7934 50.247 66.3894 48.119 66.3894 45.193C66.3894 42.248 64.6414 40.329 62.0004 40.329C60.5754 40.329 59.3404 40.956 58.7704 42.039L58.6184 40.614H56.4714V54.351ZM58.8084 45.307C58.8084 43.616 59.8534 42.438 61.4494 42.438C63.0834 42.438 64.0524 43.635 64.0524 45.307C64.0524 46.979 63.0834 48.157 61.4494 48.157C59.8534 48.157 58.8084 46.998 58.8084 45.307ZM69.3941 38.733C70.1541 38.733 70.7811 38.106 70.7811 37.327C70.7811 36.548 70.1541 35.94 69.3941 35.94C68.5961 35.94 67.9691 36.548 67.9691 37.327C67.9691 38.106 68.5961 38.733 69.3941 38.733ZM68.2351 50H70.5531V40.614H68.2351V50ZM77.147 50.247C79.598 50.247 81.308 49.012 81.707 46.96H79.56C79.294 47.853 78.458 48.347 77.185 48.347C75.646 48.347 74.772 47.511 74.601 45.858L81.669 45.839V45.136C81.669 42.21 79.883 40.329 77.071 40.329C74.316 40.329 72.397 42.362 72.397 45.307C72.397 48.214 74.354 50.247 77.147 50.247ZM77.09 42.229C78.477 42.229 79.37 43.084 79.37 44.376H74.658C74.886 42.97 75.722 42.229 77.09 42.229ZM89.4141 40.576C89.0341 40.481 88.7111 40.443 88.3881 40.443C87.1341 40.443 86.2411 41.07 85.8421 42.001L85.7091 40.633H83.5241V50H85.8421V45.44C85.8421 43.616 86.8871 42.723 88.5591 42.723H89.4141V40.576ZM95.2302 38.353H99.2962V50H101.728V38.353H105.794V36.111H95.2302V38.353ZM109.629 50V44.87C109.629 43.464 110.484 42.438 111.947 42.438C113.125 42.438 113.904 43.198 113.904 44.775V50H116.222V44.224C116.222 41.792 115.006 40.329 112.688 40.329C111.339 40.329 110.237 40.918 109.648 41.83V35.864H107.311V50H109.629ZM121.293 50.247C122.756 50.247 124.029 49.582 124.428 48.613L124.599 50H126.632V44.3C126.632 41.697 125.074 40.329 122.547 40.329C120.001 40.329 118.329 41.659 118.329 43.692H120.305C120.305 42.704 121.065 42.134 122.433 42.134C123.611 42.134 124.371 42.647 124.371 43.92V44.129L121.559 44.338C119.336 44.509 118.082 45.592 118.082 47.321C118.082 49.088 119.298 50.247 121.293 50.247ZM122.053 48.499C121.008 48.499 120.438 48.081 120.438 47.226C120.438 46.466 120.989 45.991 122.433 45.858L124.39 45.706V46.2C124.39 47.644 123.478 48.499 122.053 48.499ZM131.227 50V44.946C131.227 43.426 132.101 42.438 133.526 42.438C134.723 42.438 135.502 43.198 135.502 44.775V50H137.82V44.224C137.82 41.792 136.604 40.329 134.248 40.329C132.975 40.329 131.835 40.88 131.246 41.83L131.056 40.614H128.909V50H131.227ZM29.165 76V73.758H22.971V70.072H28.519V67.925H22.971V64.353H29.165V62.111H20.539V76H29.165ZM33.7115 76H35.9915L39.9055 66.614H37.5115L35.8015 70.927C35.4025 71.953 35.0605 72.941 34.9275 73.53C34.8135 73.017 34.4905 72.048 34.0915 70.927L32.4575 66.614H29.9875L33.7115 76ZM44.9731 76.247C47.4241 76.247 49.1341 75.012 49.5331 72.96H47.3861C47.1201 73.853 46.2841 74.347 45.0111 74.347C43.4721 74.347 42.5981 73.511 42.4271 71.858L49.4951 71.839V71.136C49.4951 68.21 47.7091 66.329 44.8971 66.329C42.1421 66.329 40.2231 68.362 40.2231 71.307C40.2231 74.214 42.1801 76.247 44.9731 76.247ZM44.9161 68.229C46.3031 68.229 47.1961 69.084 47.1961 70.376H42.4841C42.7121 68.97 43.5481 68.229 44.9161 68.229ZM57.2403 66.576C56.8603 66.481 56.5373 66.443 56.2143 66.443C54.9603 66.443 54.0673 67.07 53.6683 68.001L53.5353 66.633H51.3503V76H53.6683V71.44C53.6683 69.616 54.7133 68.723 56.3853 68.723H57.2403V66.576Z" fill="#FBFBFB"/>
</g>
<defs>
<radialGradient id="paint0_radial_202_228" cx="0" cy="0" r="1" gradientUnits="userSpaceOnUse" gradientTransform="translate(307.981 40.6409) rotate(44.6553) scale(82.2368 83.1473)">
<stop stop-color="white"/>
<stop offset="1" stop-color="#1E1E1E" stop-opacity="0"/>
<stop offset="1" stop-color="#0E0E35" stop-opacity="0"/>
<stop offset="1" stop-color="white" stop-opacity="0"/>
</radialGradient>
<clipPath id="clip0_202_228">
<rect width="334" height="118" rx="30" fill="white"/>
</clipPath>
</defs>
</svg>
